# xmcd CD database file
#
# Track frame offsets:
#	150
#	14343
#	26948
#	40038
#	53770
#	65620
#	75968
#	88288
#	101563
#	114013
#	124643
#	133730
#	145718
#	158888
#
# Disc length: 2362 seconds
#
# Revision: 2
# Processed by: cddbd v1.5PL3 Copyright (c) Steve Scherf et al.
# Submitted via: CDex 1.51
#
DISCID=b009380e
DTITLE=The Jingle Cats - Here Comes Santa Claws
DYEAR=1995
DGENRE=Christmas
TTITLE0=O Holy Night
TTITLE1=My Favorite Things
TTITLE2=Little Drummer Boy
TTITLE3=Blue Christmas
TTITLE4=White Christmas
TTITLE5=I'll Be Home for Christmas
TTITLE6=Santa Claws Medley
TTITLE7=The Christmas Song
TTITLE8=The Chipmung Song
TTITLE9=Here Comes Santa Claus
TTITLE10=Rudolph the Rednosed Reindeer
TTITLE11=Joy To The World
TTITLE12=Ave Maria
TTITLE13=A Kitten's Story
EXTD=Christmas songs made up of edited cat meows and other noises.  Okay, so it ain't Pavaroti!!! YEAR: 1995
EXTT0=
EXTT1=
EXTT2=
EXTT3=
EXTT4=
EXTT5=
EXTT6=
EXTT7=
EXTT8=
EXTT9=
EXTT10=
EXTT11=
EXTT12=
EXTT13=
PLAYORDER=
